<svg width="68" height="21" viewBox="0 0 68 21" fill="none" xmlns="http://www.w3.org/2000/svg">
<path d="M1.56438 17.32C1.50571 17.4667 1.39571 17.5473 1.23438 17.562C1.08771 17.5767 0.889708 17.4887 0.640375 17.298C0.464375 17.122 0.347042 16.9827 0.288375 16.88C0.244375 16.792 0.273708 16.6307 0.376375 16.396C0.479042 16.176 0.655042 15.78 0.904375 15.208C0.963042 14.856 1.06571 14.504 1.21238 14.152C1.35904 13.7853 1.46904 13.5287 1.54238 13.382C1.60104 13.1767 1.71838 12.8393 1.89438 12.37C2.08504 11.886 2.29771 11.3507 2.53238 10.764C2.78171 10.1773 3.01638 9.62733 3.23638 9.114C3.45638 8.586 3.61771 8.19 3.72038 7.926C3.96971 7.33933 4.22638 6.72333 4.49038 6.078C4.75438 5.43267 5.11371 4.61867 5.56838 3.636C5.62704 3.48933 5.65638 3.33533 5.65638 3.174C5.67104 3.01267 5.55371 2.932 5.30438 2.932C5.15771 2.77067 5.07704 2.60933 5.06238 2.448C5.04771 2.272 5.12104 2.14733 5.28238 2.074L6.42638 1.612C7.11571 1.45067 7.81971 1.40667 8.53838 1.48C9.27171 1.53867 9.96104 1.73667 10.6064 2.074C11.3104 2.48467 11.809 2.90267 12.1024 3.328C12.3957 3.73867 12.5424 4.15667 12.5424 4.582C12.557 5.00733 12.4837 5.42533 12.3224 5.836C12.205 6.144 11.9777 6.48133 11.6404 6.848C11.3177 7.21467 10.9364 7.58133 10.4964 7.948C10.071 8.31467 9.62371 8.652 9.15438 8.96C8.69971 9.25333 8.27438 9.48067 7.87838 9.642C7.51171 9.818 7.13038 9.972 6.73438 10.104C6.33838 10.236 5.92771 10.368 5.50238 10.5C5.26771 10.5587 4.98904 10.588 4.66638 10.588C4.34371 10.588 4.10171 10.5587 3.94038 10.5L3.56638 11.534C3.41971 12.062 3.16304 12.8467 2.79638 13.888C2.44438 14.9293 2.03371 16.0733 1.56438 17.32ZM10.2984 17.562C10.181 17.606 10.0417 17.6207 9.88038 17.606C9.73371 17.5913 9.49171 17.474 9.15438 17.254C8.50904 16.8727 7.86371 16.4107 7.21838 15.868C6.57304 15.3253 5.84704 14.592 5.04038 13.668C4.73238 13.3013 4.46838 12.964 4.24838 12.656C4.04304 12.348 3.82304 11.9153 3.58838 11.358L3.28038 10.17L3.87438 9.84L4.66638 10.632C4.90104 11.1453 5.20171 11.6367 5.56838 12.106C5.94971 12.5753 6.30171 12.9933 6.62438 13.36C6.88838 13.668 7.24771 14.042 7.70238 14.482C8.15704 14.9073 8.64104 15.318 9.15438 15.714C9.66771 16.11 10.1297 16.4107 10.5404 16.616C10.6284 16.6893 10.6577 16.7993 10.6284 16.946C10.599 17.0927 10.5477 17.2247 10.4744 17.342C10.4157 17.474 10.357 17.5473 10.2984 17.562ZM4.62238 9.378C4.95971 9.34867 5.35571 9.268 5.81038 9.136C6.26504 8.98933 6.71971 8.82067 7.17438 8.63C7.59971 8.42467 8.04704 8.18267 8.51638 7.904C9.00038 7.61067 9.44771 7.288 9.85838 6.936C10.269 6.584 10.599 6.21733 10.8484 5.836C11.1124 5.45467 11.2297 5.07333 11.2004 4.692C11.2004 4.50133 11.127 4.30333 10.9804 4.098C10.8337 3.89267 10.6577 3.70933 10.4524 3.548C10.247 3.38667 10.049 3.27667 9.85838 3.218C9.27171 3.07133 8.78771 2.976 8.40638 2.932C8.02504 2.888 7.73171 2.91733 7.52638 3.02C7.32104 3.108 7.18171 3.29867 7.10838 3.592C7.10838 3.636 7.04971 3.78267 6.93238 4.032C6.81504 4.28133 6.66838 4.58933 6.49238 4.956C6.33104 5.32267 6.16971 5.71133 6.00838 6.122C5.58304 6.98733 5.26038 7.64733 5.04038 8.102C4.82038 8.542 4.68104 8.85 4.62238 9.026C4.56371 9.202 4.56371 9.31933 4.62238 9.378ZM16.1579 15.23C15.8499 15.494 15.4906 15.648 15.0799 15.692C14.6839 15.736 14.2953 15.6773 13.9139 15.516C13.5326 15.34 13.2173 15.076 12.9679 14.724C12.7186 14.4013 12.5573 14.0347 12.4839 13.624C12.4106 13.1987 12.4033 12.6487 12.4619 11.974C12.5059 11.402 12.6893 10.83 13.0119 10.258C13.3346 9.67133 13.7233 9.15067 14.1779 8.696C14.6473 8.24133 15.1093 7.926 15.5639 7.75C15.7839 7.60333 15.9673 7.53733 16.1139 7.552C16.2753 7.552 16.5173 7.56667 16.8399 7.596C17.1773 7.64 17.4266 7.706 17.5879 7.794C17.7639 7.882 17.9033 7.99933 18.0059 8.146C18.2259 8.366 18.3726 8.586 18.4459 8.806C18.5193 9.01133 18.5559 9.21667 18.5559 9.422C18.4973 9.74467 18.2773 10.1407 17.8959 10.61C17.5293 11.0647 17.0453 11.4387 16.4439 11.732C16.1213 11.8347 15.7693 11.8787 15.3879 11.864C15.0066 11.8493 14.6913 11.754 14.4419 11.578C14.1633 11.4607 13.9799 11.4827 13.8919 11.644C13.8039 11.7907 13.7233 12.1573 13.6499 12.744C13.5913 13.3013 13.6353 13.712 13.7819 13.976C13.9286 14.2253 14.1266 14.372 14.3759 14.416C14.6693 14.4747 14.8966 14.5187 15.0579 14.548C15.2339 14.5627 15.4466 14.4967 15.6959 14.35C15.9306 14.2033 16.0773 14.1227 16.1359 14.108C16.1946 14.0787 16.2386 14.0493 16.2679 14.02C16.3119 13.976 16.4073 13.8807 16.5539 13.734C16.6566 13.6313 16.7373 13.558 16.7959 13.514C16.8546 13.4553 16.9206 13.426 16.9939 13.426C17.0673 13.426 17.1333 13.4627 17.1919 13.536C17.2506 13.5947 17.3093 13.6387 17.3679 13.668C17.5146 13.668 17.5439 13.756 17.4559 13.932C17.3826 14.108 17.2286 14.3207 16.9939 14.57C16.7593 14.8047 16.4806 15.0247 16.1579 15.23ZM16.1359 10.566C16.2973 10.4927 16.4659 10.39 16.6419 10.258C16.8179 10.1113 16.9646 9.95733 17.0819 9.796C17.2139 9.62 17.2799 9.47333 17.2799 9.356C17.2799 9.15067 17.1846 8.982 16.9939 8.85C16.8033 8.70333 16.5173 8.68133 16.1359 8.784C15.9746 8.828 15.7913 8.938 15.5859 9.114C15.3806 9.27533 15.1826 9.45867 14.9919 9.664C14.8159 9.86933 14.6693 10.0527 14.5519 10.214C14.4493 10.3753 14.4126 10.4707 14.4419 10.5C14.4859 10.5733 14.6106 10.632 14.8159 10.676C15.0213 10.7053 15.2486 10.7127 15.4979 10.698C15.7619 10.6833 15.9746 10.6393 16.1359 10.566ZM21.7502 20.202C21.3396 20.3633 20.9069 20.334 20.4522 20.114C20.0122 19.9087 19.6309 19.5787 19.3082 19.124C19.2496 19.036 19.1762 18.8967 19.0882 18.706C19.0149 18.53 18.9416 18.3467 18.8682 18.156C18.8096 17.9653 18.7729 17.7967 18.7582 17.65C18.7436 17.5033 18.7582 17.4153 18.8022 17.386C18.8462 17.342 18.9196 17.3273 19.0222 17.342C19.1249 17.3567 19.2202 17.3933 19.3082 17.452C19.4109 17.5107 19.4769 17.584 19.5062 17.672C19.5502 17.7747 19.6162 17.9067 19.7042 18.068C19.8069 18.2293 19.9169 18.376 20.0342 18.508C20.1516 18.64 20.2396 18.7133 20.2982 18.728C20.5769 18.86 20.7822 18.9187 20.9142 18.904C21.0462 18.8893 21.1636 18.8453 21.2662 18.772C21.5156 18.5813 21.7209 18.332 21.8822 18.024C22.0436 17.716 22.2269 17.2393 22.4322 16.594C22.5936 16.0513 22.7549 15.4793 22.9162 14.878C23.0922 14.262 23.2462 13.7853 23.3782 13.448C23.4222 13.272 23.4736 13.1253 23.5322 13.008C23.6056 12.876 23.6716 12.7807 23.7302 12.722H23.8622C23.5396 12.9273 23.2536 13.162 23.0042 13.426C22.7549 13.69 22.4396 13.9027 22.0582 14.064C21.9702 14.1667 21.7502 14.2327 21.3982 14.262C21.0609 14.2767 20.7309 14.2327 20.4082 14.13C20.2029 14.0127 20.0489 13.9247 19.9462 13.866C19.8582 13.8073 19.7849 13.7267 19.7262 13.624C19.6822 13.5213 19.6162 13.36 19.5282 13.14C19.4256 12.92 19.4109 12.5607 19.4842 12.062C19.5576 11.5633 19.6896 11.0647 19.8802 10.566C20.0562 10.1993 20.3129 9.80333 20.6502 9.378C20.9876 8.95267 21.3469 8.57133 21.7282 8.234C22.1096 7.882 22.4542 7.662 22.7622 7.574C22.8796 7.51533 23.0042 7.47867 23.1362 7.464C23.2829 7.43467 23.4882 7.45667 23.7522 7.53C24.0016 7.55933 24.1922 7.618 24.3242 7.706C24.4562 7.77933 24.6689 7.94067 24.9622 8.19C25.1529 8.38067 25.3069 8.57133 25.4242 8.762C25.5562 8.95267 25.6589 9.15067 25.7322 9.356C25.8349 9.576 25.8716 9.78133 25.8422 9.972C25.8276 10.148 25.7469 10.3313 25.6002 10.522C25.4682 10.7127 25.3289 10.9033 25.1822 11.094C25.0356 11.2847 24.9256 11.5487 24.8522 11.886C24.7789 12.326 24.6616 12.8247 24.5002 13.382C24.3389 13.9247 24.1996 14.4307 24.0822 14.9L23.7302 16.264C23.3636 17.5107 23.0116 18.4347 22.6742 19.036C22.3516 19.652 22.0436 20.0407 21.7502 20.202ZM20.9582 13.162C21.2516 13.1473 21.5302 13.0887 21.7942 12.986C22.0582 12.8833 22.3149 12.7147 22.5642 12.48C22.8136 12.2307 23.0629 11.9153 23.3122 11.534C23.5616 11.182 23.7376 10.8153 23.8402 10.434C23.9429 10.038 23.9796 9.65667 23.9502 9.29C23.9356 9.05533 23.8989 8.90133 23.8402 8.828C23.7816 8.75467 23.6569 8.73267 23.4662 8.762C23.1876 8.806 22.8796 8.96 22.5422 9.224C22.2049 9.47333 21.8896 9.78867 21.5962 10.17C21.3762 10.4633 21.1929 10.8153 21.0462 11.226C20.8996 11.666 20.8116 12.084 20.7822 12.48C20.7529 12.876 20.8116 13.1033 20.9582 13.162ZM28.3605 15.318C28.1405 15.2887 27.9499 15.1347 27.7885 14.856C27.6419 14.5627 27.5539 14.2987 27.5245 14.064C27.5392 13.9467 27.5539 13.778 27.5685 13.558C27.5979 13.338 27.6272 13.1107 27.6565 12.876C27.7152 12.5973 27.7959 12.26 27.8985 11.864C28.0012 11.4533 28.1039 11.0427 28.2065 10.632C28.3239 10.2213 28.4265 9.86933 28.5145 9.576C28.6025 9.28267 28.6612 9.10667 28.6905 9.048C28.7639 8.93067 28.8812 8.90133 29.0425 8.96C29.2039 9.01867 29.3359 9.10667 29.4385 9.224C29.5265 9.34133 29.5779 9.48067 29.5925 9.642C29.6219 9.80333 29.5999 10.038 29.5265 10.346C29.4679 10.654 29.3505 11.1087 29.1745 11.71C29.0132 12.2967 28.8885 12.7733 28.8005 13.14C28.7272 13.492 28.6979 13.866 28.7125 14.262C28.6539 14.7607 28.6099 15.0687 28.5805 15.186C28.5512 15.2887 28.4779 15.3327 28.3605 15.318ZM30.8905 6.54C30.8319 6.584 30.7732 6.606 30.7145 6.606C30.6705 6.59133 30.5899 6.54733 30.4725 6.474C30.3699 6.45933 30.2379 6.39333 30.0765 6.276C29.9299 6.144 29.7979 6.012 29.6805 5.88C29.5779 5.73333 29.5265 5.64533 29.5265 5.616C29.5119 5.46933 29.5192 5.286 29.5485 5.066C29.5925 4.83133 29.6732 4.626 29.7905 4.45C29.9079 4.25933 30.0765 4.15667 30.2965 4.142C30.3552 4.142 30.4065 4.14933 30.4505 4.164C30.4945 4.17867 30.6265 4.23 30.8465 4.318C30.9639 4.538 31.0812 4.78733 31.1985 5.066C31.3159 5.33 31.3672 5.594 31.3525 5.858C31.3379 6.10733 31.1839 6.33467 30.8905 6.54ZM35.0161 17.43C34.7521 17.3567 34.5394 17.2907 34.3781 17.232C34.2167 17.188 34.1361 17.166 34.1361 17.166C34.1654 17.0927 34.1507 17.0267 34.0921 16.968C34.0481 16.9093 33.9454 16.8727 33.7841 16.858C33.5641 16.7113 33.3367 16.506 33.1021 16.242C32.8674 15.978 32.6621 15.7067 32.4861 15.428C32.3101 15.1493 32.1927 14.944 32.1341 14.812C32.0314 14.592 32.0387 14.46 32.1561 14.416C32.2734 14.3573 32.4127 14.2913 32.5741 14.218C32.7354 14.1007 32.9041 14.0127 33.0801 13.954C33.2707 13.8953 33.4247 13.9907 33.5421 14.24C33.7327 14.5773 34.0261 14.8633 34.4221 15.098C34.8327 15.3327 35.2947 15.472 35.8081 15.516C36.3361 15.56 36.8641 15.472 37.3921 15.252C37.7441 15.0907 37.9347 14.8707 37.9641 14.592C37.9934 14.2987 37.8834 13.9613 37.6341 13.58C37.5901 13.4627 37.5241 13.3673 37.4361 13.294C37.3627 13.2207 37.2454 13.1253 37.0841 13.008C36.9374 12.8907 36.7247 12.7 36.4461 12.436C36.2261 12.3333 36.0207 12.238 35.8301 12.15C35.6541 12.062 35.4634 11.9667 35.2581 11.864C35.0234 11.7467 34.7594 11.5853 34.4661 11.38C34.1727 11.16 33.9014 10.9253 33.6521 10.676C33.4027 10.412 33.2121 10.1627 33.0801 9.928C32.8454 9.708 32.6987 9.40733 32.6401 9.026C32.5814 8.63 32.5887 8.212 32.6621 7.772C32.7501 7.332 32.8894 6.936 33.0801 6.584C33.1681 6.37867 33.3294 6.11467 33.5641 5.792C33.7987 5.45467 34.0627 5.11 34.3561 4.758C34.6494 4.406 34.9281 4.09067 35.1921 3.812C35.4707 3.51867 35.6907 3.32067 35.8521 3.218C35.9694 3.10067 36.0941 2.98333 36.2261 2.866C36.3581 2.734 36.4241 2.668 36.4241 2.668C36.4387 2.59467 36.4607 2.558 36.4901 2.558C36.5341 2.558 36.5561 2.558 36.5561 2.558C36.6294 2.514 36.7907 2.44067 37.0401 2.338C37.2894 2.23533 37.5607 2.04467 37.8541 1.766C38.8367 1.29667 39.6727 0.981333 40.3621 0.819999C41.0514 0.643999 41.5941 0.556 41.9901 0.556C42.3567 0.570666 42.7161 0.673333 43.0681 0.863999C43.4201 1.04 43.7207 1.26733 43.9701 1.546C44.2341 1.82467 44.3881 2.14 44.4321 2.492C44.5347 2.844 44.4834 3.26933 44.2781 3.768C44.0874 4.252 43.8161 4.714 43.4641 5.154C43.1267 5.57933 42.7747 5.89467 42.4081 6.1C41.9974 6.276 41.6454 6.298 41.3521 6.166C41.0734 6.034 40.9414 5.82867 40.9561 5.55C40.9561 5.43267 40.9927 5.29333 41.0661 5.132C41.1541 4.97067 41.3814 4.68467 41.7481 4.274C42.2174 3.58467 42.4667 3.09333 42.4961 2.8C42.5254 2.50667 42.3934 2.338 42.1001 2.294C42.0121 2.26467 41.8434 2.272 41.5941 2.316C41.3447 2.36 41.0734 2.41867 40.7801 2.492C40.5014 2.55067 40.2521 2.61667 40.0321 2.69C39.8267 2.76333 39.7241 2.81467 39.7241 2.844C39.7241 2.844 39.7241 2.866 39.7241 2.91C39.7241 2.954 39.6947 2.96867 39.6361 2.954C39.6067 2.954 39.5041 3.00533 39.3281 3.108C39.1667 3.196 38.9687 3.31333 38.7341 3.46C38.4994 3.60667 38.2647 3.76067 38.0301 3.922C37.8101 4.06867 37.6194 4.20067 37.4581 4.318C37.2967 4.43533 37.2087 4.50867 37.1941 4.538C37.1647 4.69933 36.9961 4.846 36.6881 4.978C36.3947 5.154 36.1381 5.40333 35.9181 5.726C35.6981 6.04867 35.4414 6.45933 35.1481 6.958C34.8987 7.29533 34.7227 7.662 34.6201 8.058C34.5174 8.43933 34.5174 8.74733 34.6201 8.982C34.6934 9.21667 34.8914 9.45133 35.2141 9.686C35.5514 9.906 36.0061 10.1847 36.5781 10.522C37.0767 10.8007 37.5461 11.094 37.9861 11.402C38.4261 11.71 38.8001 12.0107 39.1081 12.304C39.4161 12.5827 39.6141 12.8173 39.7021 13.008C39.8781 13.2573 39.9807 13.5433 40.0101 13.866C40.0541 14.1887 40.0541 14.504 40.0101 14.812C39.9807 15.1053 39.9367 15.3473 39.8781 15.538C39.7754 15.7727 39.6141 16.022 39.3941 16.286C39.1887 16.55 38.9981 16.6747 38.8221 16.66C38.6607 16.704 38.5361 16.7553 38.4481 16.814C38.3747 16.8727 38.2867 16.924 38.1841 16.968C38.0814 17.0267 37.8394 17.0927 37.4581 17.166C37.0767 17.254 36.6587 17.32 36.2041 17.364C35.7494 17.4227 35.3534 17.4447 35.0161 17.43ZM44.2483 16.022C44.087 15.9927 43.911 15.8973 43.7203 15.736C43.5297 15.56 43.3537 15.3693 43.1923 15.164C43.0457 14.944 42.9503 14.7607 42.9063 14.614C42.9063 14.5847 42.8843 14.548 42.8403 14.504C42.811 14.46 42.7963 14.438 42.7963 14.438C42.7377 14.394 42.701 14.2033 42.6863 13.866C42.6863 13.514 42.7083 13.1253 42.7523 12.7C42.7963 12.2747 42.8477 11.9373 42.9063 11.688C42.9797 11.4533 43.0897 11.138 43.2363 10.742C43.383 10.3313 43.5077 9.96467 43.6103 9.642L44.2043 8.366L43.3243 8.124C43.2217 8.09467 43.1337 8.036 43.0603 7.948C43.0017 7.86 42.9723 7.78667 42.9723 7.728C42.9723 7.61067 43.0383 7.442 43.1703 7.222C43.3023 7.002 43.3977 6.892 43.4563 6.892C43.5297 6.90667 43.6617 6.914 43.8523 6.914C44.0577 6.914 44.2557 6.90667 44.4463 6.892C44.637 6.87733 44.7543 6.86267 44.7983 6.848C44.857 6.81867 44.9157 6.782 44.9743 6.738C45.033 6.67933 45.077 6.59867 45.1063 6.496C45.1797 6.33467 45.2457 6.21 45.3043 6.122C45.363 6.034 45.4437 5.902 45.5463 5.726C45.649 5.53533 45.7297 5.374 45.7883 5.242C45.8617 5.11 45.9717 4.92667 46.1183 4.692C46.1917 4.58933 46.2723 4.46467 46.3603 4.318C46.4483 4.17133 46.5583 4.04667 46.6903 3.944C46.8223 3.82667 47.035 3.746 47.3283 3.702C47.6363 3.64333 47.9003 3.70933 48.1203 3.9C48.2377 4.04667 48.3037 4.186 48.3183 4.318C48.333 4.45 48.2743 4.61867 48.1423 4.824C48.025 5.07333 47.8857 5.30067 47.7243 5.506C47.5777 5.69667 47.4383 5.91667 47.3063 6.166C47.0717 6.48867 47.0277 6.672 47.1743 6.716C47.321 6.76 47.7317 6.73067 48.4063 6.628C48.8317 6.55467 49.1397 6.59867 49.3303 6.76C49.521 6.92133 49.631 7.12667 49.6603 7.376C49.7043 7.728 49.6677 7.94067 49.5503 8.014C49.433 8.08733 49.0957 8.124 48.5383 8.124C48.1863 8.18267 47.8857 8.21933 47.6363 8.234C47.387 8.234 47.2037 8.234 47.0863 8.234C46.8957 8.24867 46.771 8.256 46.7123 8.256C46.6537 8.256 46.5657 8.27067 46.4483 8.3C46.331 8.32933 46.243 8.38067 46.1843 8.454C46.1403 8.51267 46.089 8.60067 46.0303 8.718C45.9717 8.77667 45.8837 8.93067 45.7663 9.18C45.649 9.42933 45.5023 9.70067 45.3263 9.994C45.121 10.61 44.945 11.204 44.7983 11.776C44.6663 12.3333 44.549 12.8907 44.4463 13.448C44.4023 13.7267 44.4097 13.932 44.4683 14.064C44.5417 14.1813 44.7323 14.2547 45.0403 14.284C45.2017 14.2987 45.4363 14.2987 45.7443 14.284C46.0523 14.2547 46.309 14.2107 46.5143 14.152C46.6757 14.0787 46.8443 14.0053 47.0203 13.932C47.1963 13.844 47.3577 13.756 47.5043 13.668C47.6363 13.5947 47.7683 13.5213 47.9003 13.448C48.0323 13.36 48.0983 13.316 48.0983 13.316C48.1717 13.1987 48.2743 13.2207 48.4063 13.382C48.553 13.5287 48.6557 13.69 48.7143 13.866C48.7143 14.042 48.6777 14.2547 48.6043 14.504C48.531 14.7387 48.2597 14.988 47.7903 15.252C47.1303 15.6627 46.4703 15.912 45.8103 16C45.1503 16.088 44.6297 16.0953 44.2483 16.022ZM50.4975 15.538C50.4389 15.4207 50.3069 15.3033 50.1015 15.186C49.9109 15.0687 49.8155 14.9807 49.8155 14.922C49.8155 14.8633 49.7789 14.7753 49.7055 14.658C49.6469 14.526 49.5882 14.4307 49.5295 14.372C49.4562 14.284 49.4782 14.0713 49.5955 13.734C49.7129 13.382 49.8889 12.9567 50.1235 12.458C50.3582 11.9593 50.6149 11.4533 50.8935 10.94C51.0109 10.8227 51.1282 10.6687 51.2455 10.478C51.3629 10.2873 51.4509 10.1627 51.5095 10.104C51.5095 10.0453 51.5315 9.994 51.5755 9.95C51.6195 9.89133 51.6709 9.862 51.7295 9.862L51.9055 9.51C51.9349 9.45133 52.0229 9.334 52.1695 9.158C52.3309 8.982 52.5215 8.79133 52.7415 8.586C52.9615 8.366 53.1815 8.16067 53.4015 7.97C53.6362 7.77933 53.8269 7.64 53.9735 7.552C54.2815 7.34667 54.5969 7.25133 54.9195 7.266C55.2569 7.28067 55.5429 7.38333 55.7775 7.574C55.8215 7.618 55.9169 7.706 56.0635 7.838C56.2249 7.97 56.4009 8.11667 56.5915 8.278C56.7969 8.43933 56.9729 8.586 57.1195 8.718L57.9335 9.444L57.5595 10.544C57.3689 11.1307 57.3175 11.644 57.4055 12.084C57.4935 12.524 57.6329 12.9053 57.8235 13.228C57.8969 13.3893 57.9922 13.514 58.1095 13.602C58.2415 13.69 58.4102 13.7487 58.6155 13.778C58.7329 13.7927 58.8429 13.8367 58.9455 13.91C59.0482 13.9833 59.0995 14.1007 59.0995 14.262C59.0995 14.614 59.0335 14.8707 58.9015 15.032C58.7842 15.1787 58.6522 15.2667 58.5055 15.296C58.0215 15.3547 57.5595 15.3033 57.1195 15.142C56.6795 14.9807 56.2835 14.5627 55.9315 13.888C55.8729 13.8 55.7922 13.6387 55.6895 13.404C55.6015 13.1547 55.5502 12.9933 55.5355 12.92C55.4769 12.9933 55.3962 13.0887 55.2935 13.206C55.2055 13.3087 55.1175 13.404 55.0295 13.492C53.9882 14.548 53.0935 15.2373 52.3455 15.56C51.6122 15.868 50.9962 15.8607 50.4975 15.538ZM51.7075 13.712C51.8102 13.7267 51.9715 13.6753 52.1915 13.558C52.4115 13.426 52.7049 13.2133 53.0715 12.92C53.5702 12.4947 53.9809 12.1427 54.3035 11.864C54.6262 11.5853 54.9415 11.226 55.2495 10.786L55.7335 9.994C55.5869 9.65667 55.4549 9.43667 55.3375 9.334C55.2202 9.23133 55.1029 9.18 54.9855 9.18C54.7949 9.18 54.5675 9.30467 54.3035 9.554C54.0395 9.78867 53.7389 10.1407 53.4015 10.61C53.0789 11.0647 52.7122 11.6367 52.3015 12.326C52.1109 12.6487 51.9642 12.964 51.8615 13.272C51.7589 13.5653 51.7075 13.712 51.7075 13.712ZM61.5479 15.538C61.5039 15.5527 61.4086 15.5453 61.2619 15.516C61.1299 15.4867 60.9906 15.45 60.8439 15.406C60.7119 15.362 60.6312 15.3253 60.6019 15.296C60.5432 15.2373 60.4626 15.1347 60.3599 14.988C60.2572 14.8267 60.1986 14.614 60.1839 14.35C60.1839 14.086 60.3086 13.7707 60.5579 13.404C60.6312 13.2573 60.7192 13.0373 60.8219 12.744C60.9246 12.4507 61.0272 12.1427 61.1299 11.82C61.2472 11.4827 61.3499 11.182 61.4379 10.918C61.5406 10.654 61.6139 10.4707 61.6579 10.368C61.6872 10.1187 61.6726 9.94267 61.6139 9.84C61.5699 9.72267 61.4452 9.65667 61.2399 9.642C61.0932 9.642 60.9759 9.59067 60.8879 9.488C60.8146 9.38533 60.7779 9.202 60.7779 8.938C60.8072 8.73267 60.8586 8.55667 60.9319 8.41C61.0199 8.24867 61.1372 8.11667 61.2839 8.014C61.4306 7.94067 61.6139 7.88933 61.8339 7.86C62.0686 7.83067 62.2959 7.82333 62.5159 7.838C62.7359 7.85267 62.8899 7.904 62.9779 7.992C63.0806 8.05067 63.1612 8.18267 63.2199 8.388C63.2932 8.57867 63.3519 8.77667 63.3959 8.982C63.4399 9.18733 63.4692 9.34133 63.4839 9.444C63.6306 9.32667 63.7919 9.16533 63.9679 8.96C64.1586 8.74 64.3492 8.53467 64.5399 8.344C64.7746 8.18267 65.0532 8.02133 65.3759 7.86C65.6986 7.684 65.9332 7.596 66.0799 7.596C66.2412 7.596 66.4392 7.67667 66.6739 7.838C66.9086 7.98467 67.0552 8.11667 67.1139 8.234C67.2606 8.48333 67.3632 8.74733 67.4219 9.026C67.4952 9.29 67.4512 9.52467 67.2899 9.73C67.1432 9.92067 66.9379 10.1113 66.6739 10.302C66.4099 10.478 66.0799 10.5293 65.6839 10.456C65.5959 10.4267 65.5006 10.3167 65.3979 10.126C65.3099 9.93533 65.2586 9.796 65.2439 9.708C65.2439 9.664 65.1779 9.708 65.0459 9.84C64.9286 9.95733 64.7819 10.104 64.6059 10.28C64.4446 10.456 64.2906 10.6173 64.1439 10.764C63.8946 11.072 63.6306 11.49 63.3519 12.018C63.0732 12.546 62.7432 13.184 62.3619 13.932C62.1859 14.2987 62.0392 14.6507 61.9219 14.988C61.8046 15.3107 61.6799 15.494 61.5479 15.538Z" fill="black"/>
</svg>
